<mxfile host="app.diagrams.net" modified="2024-07-07T16:08:33.327Z" agent="Mozilla/5.0 (Windows NT 10.0; Win64; x64) AppleWebKit/537.36 (KHTML, like Gecko) Chrome/126.0.0.0 Safari/537.36" version="24.6.4" etag="0PTKflHcckLgvtvHH82l" type="github">
  <diagram name="Page-1" id="diEV3e4xhfRR68MecpKk">
    <mxGraphModel>
      <root>
        <mxCell id="0" />
        <mxCell id="1" parent="0" />
      </root>
    </mxGraphModel>
  </diagram>
</mxfile>
